<svg id="Capa_1" enable-background="new 0 0 512 512" height="512" viewBox="0 0 512 512" width="512" xmlns="http://www.w3.org/2000/svg"><g><g><path d="m154.012 440.189v41.811c0 16.569 13.432 30 30 30h71.988l20-35.906-20-35.906h-101.988z" fill="#ff8080"/><path d="m256 440.189v71.811h71.988c16.569 0 30-13.431 30-30v-41.811z" fill="#ff5b5b"/></g><path d="m7.726 160.805h91.522c17.069 0 30.905 13.837 30.905 30.905l50.92 40.966h-121.838c-28.448 0-51.509-23.061-51.509-51.509z" fill="#713e21"/><path d="m504.274 160.805h-91.522c-17.069 0-30.905 13.837-30.905 30.905l-50.92 40.966h121.838c28.448 0 51.509-23.061 51.509-51.509z" fill="#59281b"/><g><path d="m171.498 77.264c-36.951 0-65.647 32.206-61.401 68.913l26.781 231.544c1.177 16.22 15.604 28.815 33.006 28.815h86.116l20-171.01-20-158.262z" fill="#9d542c"/><path d="m340.501 77.264h-84.501v329.271h86.116c17.402 0 31.829-12.595 33.006-28.815l26.781-231.544c4.246-36.706-24.45-68.912-61.402-68.912z" fill="#713e21"/></g><g><path d="m153.107 316.266c-16.569 0-30 13.431-30 30v.227l10 17.07-10 15.193v41.433c0 16.569 13.431 30 30 30h102.893l10-66.962-10-66.962h-102.893z" fill="#ffb3b3"/><path d="m358.893 316.266h-102.893v133.923h102.893c16.569 0 30-13.431 30-30v-41.433l-10-14.756 10-17.508v-.227c0-16.568-13.431-29.999-30-29.999z" fill="#ff8080"/></g><path d="m123.107 378.756 56.807 22.476 11.037-27.896-67.844-26.844z" fill="#ff8080"/><path d="m388.893 346.492-67.844 26.844 11.037 27.896 56.807-22.476z" fill="#ff5b5b"/><path d="m181.074 204.619h30.905v30.905h-30.905z" fill="#713e21"/><path d="m300.021 204.619h30.905v30.905h-30.905z" fill="#59281b"/><path d="m176.828 37.183h-146.828v-37.183h-30v68.994c0 16.569 13.431 30 30 30h146.828c16.569 0 30-13.431 30-30v-1.811c0-16.568-13.431-30-30-30z" fill="#fd9"/><path d="m512 0h-30v37.183h-146.828c-16.569 0-30 13.431-30 30v1.811c0 16.569 13.431 30 30 30h146.828c16.569 0 30-13.431 30-30z" fill="#fc6"/></g></svg>