<svg id="Capa_1" enable-background="new 0 0 512 512" height="512" viewBox="0 0 512 512" width="512" xmlns="http://www.w3.org/2000/svg"><g><path d="m183.269 168.625h30v30h-30z"/><path d="m298.731 168.625h30v30h-30z"/><path d="m408.159 81.094c-2.953 0-5.836.3-8.631.847-3.986-17.662-12.502-34.208-24.926-47.796-19.842-21.7-48.085-34.145-77.489-34.145h-82.227c-29.403 0-57.647 12.445-77.489 34.145-12.425 13.588-20.94 30.134-24.926 47.796-2.795-.547-5.678-.847-8.631-.847h-103.84v54.766c0 35.841 29.159 65 65 65h53.057l9.179 102.431c-9.334 8.251-15.236 20.301-15.236 33.709v70c0 19.555 12.541 36.228 30 42.42v17.58c0 24.813 20.187 45 45 45h138c24.813 0 45-20.187 45-45v-17.58c17.459-6.192 30-22.865 30-42.42v-70c0-13.408-5.902-25.458-15.236-33.709l9.179-102.431h53.057c35.841 0 65-29.159 65-65v-54.766zm-343.159 89.766c-19.299 0-35-15.701-35-35v-24.766h73.841c2.261 0 4.399.517 6.323 1.417.044.62 5.204 58.349 5.204 58.349zm275 296.14c0 8.271-6.729 15-15 15h-138c-8.271 0-15-6.729-15-15v-15h168zm15-45h-198c-8.271 0-15-6.729-15-15v-32.934l39.981 15.819 11.037-27.896-51.018-20.185v-4.804c0-8.271 6.729-15 15-15h198c8.271 0 15 6.729 15 15v4.804l-51.019 20.186 11.037 27.896 39.982-15.82v32.934c0 8.271-6.729 15-15 15zm0-130h-198c-.22 0-.437.013-.656.017l-16.158-180.322c-1.902-21.226 4.971-41.578 19.352-57.305 14.381-15.728 34.038-24.39 55.349-24.39h82.227c21.311 0 40.968 8.662 55.349 24.389 14.381 15.728 21.253 36.079 19.352 57.305l-16.16 180.322c-.219-.003-.436-.016-.655-.016zm127-156.14c0 19.299-15.701 35-35 35h-50.368s5.16-57.729 5.204-58.349c1.925-.9 4.062-1.417 6.323-1.417h73.841z"/></g></svg>