<svg id="Capa_1" enable-background="new 0 0 512 512" height="512" viewBox="0 0 512 512" width="512" xmlns="http://www.w3.org/2000/svg"><g><path d="m0 86.141h94.37c17.6 0 31.867 14.267 31.867 31.867l52.505 63.486h-125.63c-29.333 0-53.112-23.779-53.112-53.112z" fill="#ebe1dc"/><path d="m512 86.141h-94.37c-17.6 0-31.867 14.267-31.867 31.867l-52.505 63.486h125.63c29.333 0 53.112-23.779 53.112-53.112z" fill="#dcd2cd"/><g><path d="m212.328 0c-56.168 0-100.234 48.191-95.22 104.135l24.143 269.406c1.134 16.725 15.031 29.711 31.794 29.711h82.955l20-201.626-20-201.626z" fill="#fff5f5"/><path d="m299.672 0h-43.672v403.252h82.955c16.763 0 30.66-12.987 31.794-29.711l24.143-269.406c5.014-55.944-39.052-104.135-95.22-104.135z" fill="#ebe1dc"/></g><g><path d="m150.838 448.266v33.734c0 16.569 13.431 30 30 30h75.162l10-28.333-10-45.401z" fill="#ff8080"/><path d="m256 438.266v73.734h75.162c16.569 0 30-13.431 30-30v-33.734z" fill="#ff5b5b"/></g><g><path d="m148.971 310.174c-16.569 0-30 13.431-30 30v1.669l10 16.99-10 15.273v44.159c0 16.568 13.431 30 30 30h107.029l20-72.599-20-65.492z" fill="#ffb3b3"/><path d="m363.029 310.174h-107.029v138.091h107.029c16.569 0 30-13.432 30-30v-44.159l-10-15.94 10-16.323v-1.669c0-16.568-13.431-30-30-30z" fill="#ff8080"/></g><path d="m179.675 164.12h30v30h-30z" fill="#5a5555"/><path d="m302.325 164.12h30v30h-30z" fill="#2d2d2d"/><path d="m118.971 374.106 58.747 23.244 11.037-27.895-69.784-27.611z" fill="#ff8080"/><path d="m393.029 341.844-69.784 27.611 11.037 27.895 58.747-23.244z" fill="#ff5b5b"/></g></svg>